<?xml version="1.0" encoding="UTF-8"?>
<svg width="256px" height="256px" viewBox="0 0 256 256" xmlns="http://www.w3.org/2000/svg" xmlns:xlink="http://www.w3.org/1999/xlink" version="1.1">
 <!-- Generated by Pixelmator Pro 1.2.4 -->
 <path id="path" d="M160.227 178.519 L187.857 178.519 143.75 64.049 113.201 64.049 69.094 178.519 96.726 178.519 103.934 159.129 145.609 159.129 138.065 137.673 110.625 137.673 128.475 88.419 160.227 178.519 Z M251.339 93.768 C250.357 90.232 246.705 88.155 243.154 89.141 239.617 90.123 237.544 93.787 238.526 97.324 241.299 107.309 242.704 117.63 242.704 128 242.704 191.248 191.248 242.702 128 242.702 64.752 242.702 13.297 191.248 13.297 128 13.297 64.751 64.752 13.296 128 13.296 154.793 13.296 180.718 22.814 201.179 39.752 200.383 41.652 199.941 43.737 199.941 45.925 199.941 54.76 207.103 61.922 215.938 61.922 224.773 61.922 231.935 54.76 231.935 45.925 231.935 37.09 224.773 29.928 215.938 29.928 214.237 29.928 212.6 30.199 211.062 30.691 188.022 11.056 158.513 0 128 0 57.421 0 0 57.42 0 128 0 198.579 57.421 255.999 128 255.999 198.579 255.999 256 198.579 256 128 256 116.428 254.433 104.91 251.339 93.768 Z" fill="#ffffff" fill-opacity="1" stroke="none"/>
</svg>
