<?xml version="1.0" encoding="UTF-8"?>
<svg width="256px" height="256px" viewBox="0 0 256 256" xmlns="http://www.w3.org/2000/svg" xmlns:xlink="http://www.w3.org/1999/xlink" version="1.1">
 <!-- Generated by Pixelmator Pro 1.2.4 -->
 <path id="path" d="M185.532 88.839 L185.438 88.799 C185.385 88.779 185.331 88.759 185.284 88.712 185.129 88.545 185.06 88.316 185.097 88.091 L190.264 56.538 214.493 80.747 189.295 91.456 C189.225 91.484 189.15 91.498 189.074 91.496 L188.974 91.496 C188.94 91.476 188.907 91.449 188.84 91.383 187.902 90.34 186.781 89.477 185.532 88.839 Z M220.676 86.916 L246.582 112.794 C251.963 118.176 254.656 120.86 255.639 123.971 255.786 124.432 255.906 124.892 256 125.366 L194.087 99.174 C194.054 99.16 194.02 99.147 193.987 99.134 193.739 99.034 193.452 98.92 193.452 98.667 193.452 98.413 193.746 98.293 193.993 98.193 L194.074 98.159 220.676 86.916 Z M254.944 133.672 C253.607 136.182 251 138.786 246.589 143.199 L217.38 172.369 179.603 164.511 179.402 164.471 C179.068 164.417 178.714 164.357 178.714 164.057 178.424 160.91 176.838 158.025 174.336 156.092 174.182 155.938 174.222 155.698 174.269 155.478 174.269 155.444 174.269 155.411 174.283 155.384 L179 128 181.388 111.813 181.414 111.666 C181.454 111.332 181.515 110.945 181.815 110.945 184.891 110.563 187.684 108.963 189.569 106.505 189.629 106.438 189.669 106.365 189.749 106.325 189.963 106.225 190.217 106.325 190.438 106.418 L254.937 133.672 254.944 133.672 Z M210.663 179.079 L162.633 227.057 170.854 176.582 170.867 176.515 C170.874 176.449 170.887 176.382 170.907 176.322 170.974 176.161 171.148 176.095 171.315 176.028 L171.395 175.995 C173.195 175.227 174.787 174.044 176.041 172.543 176.201 172.356 176.395 172.176 176.642 172.142 176.706 172.132 176.772 172.132 176.836 172.142 L210.656 179.086 210.663 179.079 Z M152.466 237.212 L147.052 242.62 87.198 156.212 C87.176 156.18 87.154 156.149 87.131 156.119 87.038 155.992 86.937 155.865 86.958 155.718 86.964 155.611 87.031 155.518 87.104 155.438 L87.171 155.351 C87.352 155.084 87.505 154.817 87.673 154.529 L87.806 154.296 87.826 154.276 C87.92 154.115 88.007 153.962 88.167 153.875 88.308 153.808 88.501 153.835 88.655 153.869 L154.966 167.529 C155.151 167.557 155.326 167.633 155.474 167.749 155.561 167.836 155.581 167.929 155.601 168.036 156.539 171.58 159.081 174.482 162.472 175.881 162.659 175.975 162.579 176.182 162.492 176.402 162.449 176.498 162.415 176.599 162.392 176.702 161.557 181.776 154.391 225.428 152.466 237.212 Z M141.157 248.502 C137.167 252.448 134.814 254.538 132.154 255.379 129.531 256.207 126.716 256.207 124.093 255.379 120.979 254.391 118.285 251.707 112.904 246.325 L52.796 186.283 68.497 161.96 C68.57 161.84 68.644 161.734 68.764 161.647 68.931 161.526 69.172 161.58 69.372 161.647 72.976 162.733 76.845 162.537 80.32 161.093 80.501 161.026 80.681 160.979 80.822 161.106 80.892 161.17 80.955 161.242 81.009 161.32 L141.157 248.509 141.157 248.502 Z M47.001 180.495 L33.212 166.721 60.442 155.117 C60.512 155.087 60.587 155.071 60.663 155.07 60.89 155.07 61.024 155.297 61.144 155.504 61.418 155.925 61.708 156.335 62.013 156.733 L62.1 156.84 C62.18 156.953 62.127 157.067 62.047 157.173 L47.008 180.495 47.001 180.495 Z M27.11 160.625 L9.665 143.199 C6.697 140.235 4.545 138.085 3.048 136.236 L56.091 147.225 C56.158 147.238 56.225 147.249 56.292 147.259 56.619 147.312 56.98 147.372 56.98 147.679 56.98 148.013 56.586 148.167 56.252 148.294 L56.098 148.36 27.11 160.625 Z M0 127.276 C0.06 126.153 0.262 125.043 0.601 123.971 1.591 120.86 4.278 118.176 9.665 112.794 L31.989 90.495 C42.268 105.396 52.574 120.278 62.909 135.141 63.089 135.381 63.29 135.648 63.083 135.849 62.107 136.923 61.131 138.099 60.442 139.374 60.368 139.538 60.253 139.68 60.108 139.788 60.021 139.841 59.928 139.821 59.828 139.801 L59.814 139.801 0 127.269 0 127.276 Z M37.964 84.526 L67.982 54.541 C70.802 55.777 81.069 60.11 90.253 63.982 97.204 66.92 103.54 69.59 105.532 70.458 105.733 70.538 105.913 70.619 106 70.819 106.053 70.939 106.027 71.093 106 71.219 105.035 75.616 106.348 80.203 109.496 83.424 109.696 83.625 109.496 83.912 109.322 84.159 L109.228 84.299 78.75 131.455 C78.669 131.589 78.596 131.702 78.462 131.789 78.302 131.889 78.075 131.843 77.887 131.796 76.702 131.486 75.483 131.32 74.258 131.302 73.162 131.302 71.972 131.502 70.769 131.722 L70.762 131.722 C70.629 131.742 70.508 131.769 70.401 131.689 70.283 131.593 70.182 131.478 70.101 131.349 L37.964 84.526 Z M74.044 48.486 L112.904 9.668 C118.285 4.294 120.979 1.603 124.093 0.622 126.716 -0.207 129.531 -0.207 132.154 0.622 135.269 1.603 137.962 4.294 143.343 9.668 L151.765 18.081 124.127 60.837 C124.058 60.962 123.965 61.071 123.853 61.158 123.685 61.271 123.452 61.225 123.251 61.158 118.827 59.817 114.026 60.741 110.418 63.628 110.237 63.815 109.97 63.708 109.743 63.608 106.134 62.039 78.061 50.188 74.044 48.486 Z M157.633 23.943 L183.152 49.434 177.003 87.477 177.003 87.577 C176.997 87.664 176.979 87.749 176.949 87.831 176.883 87.964 176.749 87.991 176.615 88.031 175.301 88.429 174.062 89.045 172.953 89.854 172.905 89.888 172.86 89.926 172.819 89.967 172.745 90.047 172.672 90.121 172.552 90.134 172.454 90.137 172.356 90.121 172.264 90.087 L133.377 73.583 133.304 73.55 C133.056 73.449 132.762 73.329 132.762 73.076 132.534 70.911 131.826 68.824 130.69 66.966 130.503 66.659 130.296 66.339 130.456 66.025 L157.633 23.943 Z M131.352 81.401 L167.806 96.824 C168.006 96.917 168.227 97.004 168.314 97.211 168.349 97.336 168.349 97.467 168.314 97.592 168.207 98.126 168.113 98.734 168.113 99.348 L168.113 100.369 C168.113 100.623 167.853 100.73 167.612 100.83 L167.539 100.857 C161.764 103.32 86.463 135.395 86.349 135.395 86.236 135.395 86.115 135.395 86.002 135.281 85.801 135.081 86.002 134.8 86.182 134.547 86.214 134.503 86.245 134.458 86.276 134.413 L116.233 88.078 116.286 87.998 C116.46 87.717 116.661 87.403 116.982 87.403 L117.282 87.45 C117.964 87.544 118.566 87.63 119.174 87.63 123.719 87.63 127.93 85.42 130.47 81.641 130.53 81.541 130.607 81.45 130.697 81.375 130.877 81.241 131.145 81.308 131.352 81.401 Z M89.604 142.725 L171.683 107.76 C171.683 107.76 171.803 107.76 171.917 107.874 172.364 108.321 172.745 108.621 173.113 108.902 L173.293 109.015 C173.46 109.109 173.628 109.216 173.641 109.389 173.641 109.456 173.641 109.496 173.628 109.556 L166.596 152.7 166.569 152.874 C166.523 153.208 166.476 153.588 166.162 153.588 162.356 153.845 158.922 155.961 156.985 159.243 L156.951 159.297 C156.858 159.45 156.771 159.597 156.617 159.677 156.477 159.744 156.296 159.717 156.149 159.684 L90.694 146.197 C90.627 146.184 89.678 142.732 89.604 142.725 Z" fill="#ffffff" fill-opacity="1" stroke="none"/>
</svg>
