<?xml version="1.0" encoding="iso-8859-1"?>
<!-- Generator: Adobe Illustrator 21.1.0, SVG Export Plug-In . SVG Version: 6.00 Build 0)  -->
<svg xmlns="http://www.w3.org/2000/svg" xmlns:xlink="http://www.w3.org/1999/xlink" version="1.1" id="Layer_1" x="0px" y="0px" viewBox="0 0 50 50" style="enable-background:new 0 0 50 50;" xml:space="preserve" width="100px" height="100px">
<path style="fill:none;stroke:#1abc9c;stroke-width:2;stroke-linecap:round;stroke-miterlimit:10;" d="M26,45V29h-3v-5h3v-3  c0-4,2-7,6-7c2.903,0,5,1,5,1v4h-2c-2.145,0-3,0.504-3,2v3h5l-1,5h-4v16"/>
<path style="fill:none;stroke:#1abc9c;stroke-width:2;stroke-linecap:round;stroke-linejoin:round;stroke-miterlimit:10;" d="M9,45  h32c2.209,0,4-1.791,4-4V9c0-2.209-1.791-4-4-4H9C6.791,5,5,6.791,5,9v32C5,43.209,6.791,45,9,45z"/>
</svg>
