<?xml version="1.0" encoding="iso-8859-1"?>
<!-- Generator: Adobe Illustrator 21.0.2, SVG Export Plug-In . SVG Version: 6.00 Build 0)  -->
<svg xmlns="http://www.w3.org/2000/svg" xmlns:xlink="http://www.w3.org/1999/xlink" version="1.1" id="Layer_1" x="0px" y="0px" viewBox="0 0 80 80" style="enable-background:new 0 0 80 80;" xml:space="preserve" width="480px" height="480px">
<g>
	<path style="fill:none;stroke:#1abc9c;stroke-width:2;stroke-miterlimit:10;" d="M28.204,59.422h-8.613V31.744h8.613V59.422z    M23.903,27.963c-2.763,0-4.994-2.236-4.994-4.989s2.231-4.989,4.994-4.989c2.75,0,4.984,2.236,4.984,4.989   S26.653,27.963,23.903,27.963z M60.423,59.422h-8.6V45.961c0-3.21-0.056-7.338-4.471-7.338c-4.475,0-5.158,3.499-5.158,7.109   v13.691h-8.594V31.744h8.244v3.784h0.12c1.149-2.176,3.952-4.47,8.137-4.47c8.713,0,10.321,5.73,10.321,13.185V59.422z"/>
</g>
<path style="fill:none;stroke:#1abc9c;stroke-width:2;stroke-miterlimit:10;" d="M15,68h50c2.209,0,4-1.791,4-4V14  c0-2.209-1.791-4-4-4H15c-2.209,0-4,1.791-4,4v50C11,66.209,12.791,68,15,68z"/>
<circle cx="40" cy="18" r="1"/>
<circle cx="44" cy="18" r="1"/>
<circle cx="48" cy="18" r="1"/>
<circle cx="52" cy="18" r="1"/>
<circle cx="36" cy="18" r="1"/>
<circle cx="56" cy="18" r="1"/>
<circle cx="60" cy="18" r="1"/>
</svg>
